<svg width="176" height="24" viewBox="0 0 176 24" fill="none" xmlns="http://www.w3.org/2000/svg">
<g clip-path="url(#clip0_107_6)">
<path d="M169.483 11.6175C172.262 11.6175 174.802 9.94419 175.473 7.2669C175.713 6.31073 175.713 5.25893 175.281 4.39838C174.85 3.53782 174.035 2.77288 173.077 2.62945C172.119 2.48603 171.017 2.96411 170.585 3.82467C170.154 4.68523 170.49 5.92826 171.4 6.35854C171.927 6.59758 172.598 6.54977 173.029 6.1673C173.46 5.78483 173.652 5.0677 173.317 4.58961" stroke="#E3B573" stroke-width="1.5193" stroke-miterlimit="10" stroke-linecap="round" stroke-linejoin="round"/>
<path d="M92.0011 7.55379C91.7615 7.98407 91.8573 8.55778 92.2407 8.89244C92.624 9.2271 93.199 9.27491 93.6303 9.03586C94.3969 8.65339 94.6845 7.64941 94.3011 6.88447C93.9178 6.11953 93.0073 5.73706 92.1928 5.83268C91.3782 5.9761 90.4198 6.40638 90.2282 7.74503C89.8448 10.5657 92.4803 11.6175 94.7803 11.6175H165.171C167.662 11.6175 168.86 9.8008 168.86 8.74901C168.86 7.98407 168.381 7.12351 167.231 7.12351" stroke="#E3B573" stroke-width="1.5193" stroke-miterlimit="10" stroke-linecap="round" stroke-linejoin="round"/>
<path d="M169.483 11.6176C166.992 11.6176 165.794 9.80083 165.794 8.74903C165.794 7.98409 166.273 7.12354 167.423 7.12354" stroke="#E3B573" stroke-width="1.5193" stroke-miterlimit="10" stroke-linecap="round" stroke-linejoin="round"/>
<path d="M6.51674 11.6175C3.73754 11.6175 1.19793 9.94419 0.527087 7.2669C0.287501 6.31073 0.287501 5.25893 0.718756 4.39838C1.15001 3.53782 1.9646 2.77288 2.92295 2.62945C3.88129 2.48603 4.98339 2.96411 5.41465 3.82467C5.8459 4.68523 5.51048 5.92826 4.60005 6.35854C4.07296 6.59758 3.40212 6.54977 2.97087 6.1673C2.53961 5.78483 2.34794 5.0677 2.68336 4.58961" stroke="#E3B573" stroke-width="1.5193" stroke-miterlimit="10" stroke-linecap="round" stroke-linejoin="round"/>
<path d="M83.9989 7.55379C84.2385 7.98407 84.1427 8.55778 83.7593 8.89244C83.376 9.2271 82.801 9.27491 82.3697 9.03586C81.6031 8.65339 81.3156 7.64941 81.6989 6.88447C82.0822 6.11953 82.9927 5.73706 83.8073 5.83268C84.6218 5.9761 85.5802 6.40638 85.7719 7.74503C86.1552 10.5657 83.5197 11.6175 81.2197 11.6175H10.8293C8.33761 11.6175 7.13968 9.8008 7.13968 8.74901C7.13968 7.98407 7.61885 7.12351 8.76886 7.12351" stroke="#E3B573" stroke-width="1.5193" stroke-miterlimit="10" stroke-linecap="round" stroke-linejoin="round"/>
<path d="M6.51675 11.6176C9.00845 11.6176 10.2064 9.80083 10.2064 8.74903C10.2064 7.98409 9.72721 7.12354 8.5772 7.12354" stroke="#E3B573" stroke-width="1.5193" stroke-miterlimit="10" stroke-linecap="round" stroke-linejoin="round"/>
<path d="M86.4427 2.43825L88.0719 0L89.6531 2.43825L88.0719 4.87649L86.4427 2.43825Z" fill="#E3B573"/>
</g>
<g clip-path="url(#clip1_107_6)">
<path d="M6.51675 12.3825C3.73756 12.3825 1.19794 14.0558 0.5271 16.7331C0.287514 17.6893 0.287525 18.7411 0.71878 19.6016C1.15004 20.4622 1.96462 21.2271 2.92296 21.3705C3.88131 21.514 4.98341 21.0359 5.41466 20.1753C5.84592 19.3148 5.51049 18.0717 4.60006 17.6415C4.07298 17.4024 3.40214 17.4502 2.97088 17.8327C2.53963 18.2152 2.34795 18.9323 2.68338 19.4104" stroke="#E3B573" stroke-width="1.5193" stroke-miterlimit="10" stroke-linecap="round" stroke-linejoin="round"/>
<path d="M83.9989 16.4462C84.2385 16.0159 84.1427 15.4422 83.7593 15.1076C83.376 14.7729 82.801 14.7251 82.3697 14.9641C81.6031 15.3466 81.3155 16.3506 81.6989 17.1155C82.0822 17.8805 82.9927 18.2629 83.8072 18.1673C84.6218 18.0239 85.5802 17.5936 85.7718 16.255C86.1552 13.4343 83.5197 12.3825 81.2197 12.3825L10.8293 12.3825C8.3376 12.3825 7.13967 14.1992 7.13967 15.251C7.13967 16.0159 7.61884 16.8765 8.76886 16.8765" stroke="#E3B573" stroke-width="1.5193" stroke-miterlimit="10" stroke-linecap="round" stroke-linejoin="round"/>
<path d="M6.51676 12.3824C9.00845 12.3824 10.2064 14.1992 10.2064 15.251C10.2064 16.0159 9.72722 16.8765 8.57721 16.8765" stroke="#E3B573" stroke-width="1.5193" stroke-miterlimit="10" stroke-linecap="round" stroke-linejoin="round"/>
<path d="M169.483 12.3825C172.262 12.3825 174.802 14.0558 175.473 16.7331C175.712 17.6893 175.712 18.7411 175.281 19.6016C174.85 20.4622 174.035 21.2271 173.077 21.3705C172.119 21.514 171.017 21.0359 170.585 20.1753C170.154 19.3148 170.49 18.0717 171.4 17.6415C171.927 17.4024 172.598 17.4502 173.029 17.8327C173.46 18.2152 173.652 18.9323 173.317 19.4104" stroke="#E3B573" stroke-width="1.5193" stroke-miterlimit="10" stroke-linecap="round" stroke-linejoin="round"/>
<path d="M92.0011 16.4462C91.7615 16.0159 91.8574 15.4422 92.2407 15.1076C92.624 14.7729 93.199 14.7251 93.6303 14.9641C94.397 15.3466 94.6845 16.3506 94.3011 17.1155C93.9178 17.8805 93.0074 18.2629 92.1928 18.1673C91.3782 18.0239 90.4198 17.5936 90.2282 16.255C89.8448 13.4342 92.4803 12.3825 94.7803 12.3825L165.171 12.3825C167.662 12.3825 168.86 14.1992 168.86 15.251C168.86 16.0159 168.381 16.8765 167.231 16.8765" stroke="#E3B573" stroke-width="1.5193" stroke-miterlimit="10" stroke-linecap="round" stroke-linejoin="round"/>
<path d="M169.483 12.3824C166.992 12.3824 165.794 14.1992 165.794 15.251C165.794 16.0159 166.273 16.8765 167.423 16.8765" stroke="#E3B573" stroke-width="1.5193" stroke-miterlimit="10" stroke-linecap="round" stroke-linejoin="round"/>
<path d="M89.5573 21.5618L87.9281 24L86.3469 21.5618L87.9281 19.1235L89.5573 21.5618Z" fill="#E3B573"/>
</g>
<defs>
<clipPath id="clip0_107_6">
<rect width="176" height="12" fill="white"/>
</clipPath>
<clipPath id="clip1_107_6">
<rect width="176" height="12" fill="white" transform="translate(176 24) rotate(-180)"/>
</clipPath>
</defs>
</svg>
