<svg width="600" height="41" viewBox="0 0 600 41" fill="none" xmlns="http://www.w3.org/2000/svg">
<g clip-path="url(#clip0_11_28)">
<path d="M577.784 39.6932C587.258 39.6932 595.916 33.9761 598.203 24.8287C599.02 21.5618 599.02 17.9681 597.55 15.0279C596.079 12.0876 593.302 9.4741 590.035 8.98406C586.768 8.49402 583.011 10.1275 581.541 13.0677C580.071 16.008 581.214 20.255 584.318 21.7251C586.115 22.5418 588.402 22.3785 589.872 21.0717C591.342 19.7649 591.996 17.3147 590.852 15.6813" stroke="#E3B573" stroke-width="1.5193" stroke-miterlimit="10" stroke-linecap="round" stroke-linejoin="round"/>
<path d="M313.64 25.8088C312.823 27.2789 313.15 29.239 314.457 30.3825C315.764 31.5259 317.724 31.6892 319.194 30.8725C321.808 29.5657 322.788 26.1355 321.481 23.5219C320.174 20.9084 317.071 19.6016 314.294 19.9283C311.516 20.4183 308.249 21.8884 307.596 26.4622C306.289 36.0996 315.274 39.6932 323.115 39.6932H563.082C571.576 39.6932 575.66 33.4861 575.66 29.8924C575.66 27.2789 574.027 24.3386 570.106 24.3386" stroke="#E3B573" stroke-width="1.5193" stroke-miterlimit="10" stroke-linecap="round" stroke-linejoin="round"/>
<path d="M577.784 39.6932C569.289 39.6932 565.206 33.4861 565.206 29.8924C565.206 27.2789 566.839 24.3386 570.76 24.3386" stroke="#E3B573" stroke-width="1.5193" stroke-miterlimit="10" stroke-linecap="round" stroke-linejoin="round"/>
<path d="M22.2162 39.6932C12.7416 39.6932 4.08384 33.9761 1.79688 24.8287C0.980108 21.5618 0.980108 17.9681 2.4503 15.0279C3.92048 12.0876 6.69751 9.4741 9.96459 8.98406C13.2317 8.49402 16.9888 10.1275 18.459 13.0677C19.9292 16.008 18.7857 20.255 15.682 21.7251C13.8851 22.5418 11.5981 22.3785 10.1279 21.0717C8.65776 19.7649 8.00434 17.3147 9.14782 15.6813" stroke="#E3B573" stroke-width="1.5193" stroke-miterlimit="10" stroke-linecap="round" stroke-linejoin="round"/>
<path d="M286.36 25.8088C287.177 27.2789 286.85 29.239 285.543 30.3825C284.236 31.5259 282.276 31.6892 280.806 30.8725C278.192 29.5657 277.212 26.1355 278.519 23.5219C279.826 20.9084 282.929 19.6016 285.707 19.9283C288.484 20.4183 291.751 21.8884 292.404 26.4622C293.711 36.0996 284.726 39.6932 276.885 39.6932H36.9181C28.4236 39.6932 24.3398 33.4861 24.3398 29.8924C24.3398 27.2789 25.9733 24.3386 29.8938 24.3386" stroke="#E3B573" stroke-width="1.5193" stroke-miterlimit="10" stroke-linecap="round" stroke-linejoin="round"/>
<path d="M22.2162 39.6932C30.7106 39.6932 34.7945 33.4861 34.7945 29.8924C34.7945 27.2789 33.1609 24.3386 29.2404 24.3386" stroke="#E3B573" stroke-width="1.5193" stroke-miterlimit="10" stroke-linecap="round" stroke-linejoin="round"/>
<path d="M294.691 8.33068L300.245 0L305.636 8.33068L300.245 16.6614L294.691 8.33068Z" fill="#E3B573"/>
</g>
<defs>
<clipPath id="clip0_11_28">
<rect width="600" height="41" fill="white"/>
</clipPath>
</defs>
</svg>
