<svg width="232" height="43" viewBox="0 0 232 43" fill="none" xmlns="http://www.w3.org/2000/svg">
<path d="M7.88633 36C7.44633 37.32 7.50633 38.4 8.06633 39.24C8.62633 40.08 9.78633 40.54 11.5463 40.62V42H0.626328V40.62C1.50633 40.54 2.26633 40.1 2.90633 39.3C3.54633 38.46 4.10633 37.36 4.58633 36L15.2063 6.84C15.6063 5.8 15.9863 4.78 16.3463 3.78C16.7063 2.78 17.0263 1.76 17.3063 0.719999H20.7863C21.0663 1.76 21.3863 2.78 21.7463 3.78C22.1063 4.78 22.4863 5.8 22.8863 6.84L33.5063 36C34.0263 37.36 34.4863 38.36 34.8863 39C35.2863 39.64 35.7063 40.06 36.1463 40.26C36.5863 40.42 37.1263 40.54 37.7663 40.62V42H21.0263V40.62C22.6263 40.54 23.5063 40.08 23.6663 39.24C23.8263 38.36 23.6863 37.28 23.2463 36L15.5663 14.4H15.4463L7.88633 36ZM55.0337 13.5C57.9537 13.5 60.5137 14.1 62.7137 15.3C64.9537 16.46 66.7137 18.12 67.9937 20.28C69.2737 22.44 69.9137 24.96 69.9137 27.84C69.9137 31 69.1737 33.7 67.6937 35.94C66.2137 38.18 64.2737 39.9 61.8737 41.1C59.5137 42.3 56.9537 42.9 54.1937 42.9C51.3137 42.9 48.7537 42.3 46.5137 41.1C44.2737 39.9 42.5137 38.24 41.2337 36.12C39.9537 33.96 39.3137 31.44 39.3137 28.56C39.3137 25.4 40.0537 22.7 41.5337 20.46C43.0137 18.22 44.9337 16.5 47.2937 15.3C49.6937 14.1 52.2737 13.5 55.0337 13.5ZM55.2137 40.32C56.6937 40.32 57.9137 39.48 58.8737 37.8C59.8337 36.12 60.3137 33.52 60.3137 30C60.3137 27.44 60.0537 25.12 59.5337 23.04C59.0137 20.92 58.2737 19.24 57.3137 18C56.3937 16.72 55.2937 16.08 54.0137 16.08C52.5337 16.08 51.3137 16.92 50.3537 18.6C49.3937 20.28 48.9137 22.88 48.9137 26.4C48.9137 28.96 49.1737 31.3 49.6937 33.42C50.2137 35.5 50.9537 37.18 51.9137 38.46C52.8737 39.7 53.9737 40.32 55.2137 40.32ZM95.9724 14.4V24.6H94.5924C94.5124 22 94.0124 20.08 93.0924 18.84C92.1724 17.6 91.0924 16.98 89.8524 16.98H88.4124C87.4124 16.98 86.7124 17.24 86.3124 17.76C85.9124 18.28 85.7124 19.36 85.7124 21V35.4C85.7124 36.88 85.8124 38 86.0124 38.76C86.2124 39.48 86.5724 39.96 87.0924 40.2C87.6124 40.44 88.3524 40.58 89.3124 40.62V42H74.0124V40.62C74.6924 40.58 75.2324 40.44 75.6324 40.2C76.0324 39.96 76.3124 39.48 76.4724 38.76C76.6324 38 76.7124 36.88 76.7124 35.4V21C76.7124 19.48 76.6124 18.36 76.4124 17.64C76.2124 16.92 75.8524 16.44 75.3324 16.2C74.8524 15.96 74.1124 15.82 73.1124 15.78V14.4H95.9724ZM113.803 13.5C116.723 13.5 119.283 14.1 121.483 15.3C123.723 16.46 125.483 18.12 126.763 20.28C128.043 22.44 128.683 24.96 128.683 27.84C128.683 31 127.943 33.7 126.463 35.94C124.983 38.18 123.043 39.9 120.643 41.1C118.283 42.3 115.723 42.9 112.963 42.9C110.083 42.9 107.523 42.3 105.283 41.1C103.043 39.9 101.283 38.24 100.003 36.12C98.7232 33.96 98.0832 31.44 98.0832 28.56C98.0832 25.4 98.8232 22.7 100.303 20.46C101.783 18.22 103.703 16.5 106.063 15.3C108.463 14.1 111.043 13.5 113.803 13.5ZM113.983 40.32C115.463 40.32 116.683 39.48 117.643 37.8C118.603 36.12 119.083 33.52 119.083 30C119.083 27.44 118.823 25.12 118.303 23.04C117.783 20.92 117.043 19.24 116.083 18C115.163 16.72 114.063 16.08 112.783 16.08C111.303 16.08 110.083 16.92 109.123 18.6C108.163 20.28 107.683 22.88 107.683 26.4C107.683 28.96 107.943 31.3 108.463 33.42C108.983 35.5 109.723 37.18 110.683 38.46C111.643 39.7 112.743 40.32 113.983 40.32ZM158.882 14.4V24H157.502C157.422 21.68 156.922 19.94 156.002 18.78C155.122 17.58 154.142 16.98 153.062 16.98H152.222C151.222 16.98 150.522 17.24 150.122 17.76C149.722 18.28 149.522 19.36 149.522 21V35.4C149.522 36.88 149.622 38 149.822 38.76C150.022 39.48 150.382 39.96 150.902 40.2C151.422 40.44 152.162 40.58 153.122 40.62V42H137.822V40.62C138.502 40.58 139.042 40.44 139.442 40.2C139.842 39.96 140.122 39.48 140.282 38.76C140.442 38 140.522 36.88 140.522 35.4V21C140.522 19.36 140.302 18.28 139.862 17.76C139.462 17.24 138.682 16.98 137.522 16.98H136.622C135.542 16.98 134.542 17.58 133.622 18.78C132.742 19.94 132.262 21.68 132.182 24H130.802V14.4H158.882ZM190.548 21V35.4C190.548 36.88 190.648 38 190.848 38.76C191.048 39.48 191.408 39.96 191.928 40.2C192.448 40.44 193.188 40.58 194.148 40.62V42H178.848V40.62C179.528 40.58 180.068 40.44 180.468 40.2C180.868 39.96 181.148 39.48 181.308 38.76C181.468 38 181.548 36.88 181.548 35.4V22.56L171.348 42H160.848V40.62C161.528 40.58 162.068 40.44 162.468 40.2C162.868 39.96 163.148 39.48 163.308 38.76C163.468 38 163.548 36.88 163.548 35.4V21C163.548 19.48 163.448 18.36 163.248 17.64C163.048 16.92 162.688 16.44 162.168 16.2C161.688 15.96 160.948 15.82 159.948 15.78V14.4H175.248V15.78C174.568 15.82 174.028 15.96 173.628 16.2C173.228 16.44 172.948 16.92 172.788 17.64C172.628 18.36 172.548 19.48 172.548 21V33.84L182.748 14.4H193.248V15.78C192.568 15.82 192.028 15.96 191.628 16.2C191.228 16.44 190.948 16.92 190.788 17.64C190.628 18.36 190.548 19.48 190.548 21ZM227.521 35.4C227.521 36.88 227.621 38 227.821 38.76C228.021 39.48 228.381 39.96 228.901 40.2C229.421 40.44 230.161 40.58 231.121 40.62V42H215.821V40.62C216.501 40.58 217.041 40.44 217.441 40.2C217.841 39.96 218.121 39.48 218.281 38.76C218.441 38 218.521 36.88 218.521 35.4V21C218.521 19.36 218.281 18.3 217.801 17.82C217.361 17.3 216.401 17.02 214.921 16.98H212.221C211.221 17.02 210.521 17.3 210.121 17.82C209.721 18.3 209.521 19.36 209.521 21V35.4C209.521 36.88 209.621 38 209.821 38.76C210.021 39.48 210.381 39.96 210.901 40.2C211.421 40.44 212.161 40.58 213.121 40.62V42H197.821V40.62C198.501 40.58 199.041 40.44 199.441 40.2C199.841 39.96 200.121 39.48 200.281 38.76C200.441 38 200.521 36.88 200.521 35.4V21C200.521 19.48 200.421 18.36 200.221 17.64C200.021 16.92 199.661 16.44 199.141 16.2C198.661 15.96 197.921 15.82 196.921 15.78V14.4H230.221V15.78C229.541 15.82 229.001 15.96 228.601 16.2C228.201 16.44 227.921 16.92 227.761 17.64C227.601 18.36 227.521 19.48 227.521 21V35.4Z" fill="#BFBFBF"/>
</svg>
