<svg width="125" height="94" viewBox="0 0 125 94" fill="none" xmlns="http://www.w3.org/2000/svg">
<g clip-path="url(#clip0_11_425)">
<path d="M62.6 1.50007C59.4 1.50007 56.7 3.50007 55.7 6.30007L16.7 11.2001C13.4 11.6001 11 14.7001 11.4 18.0001C11.8 21.1001 14.4 23.4001 17.5 23.4001C17.8 23.4001 18 23.4001 18.3 23.4001L19.9 23.2001L8.2 57.7001C8.2 57.8001 8.1 57.9001 8.1 58.0001H0L0.2 60.2001C0.7 67.4001 6.9 73.1001 14.1 73.1001H35.2C42.4 73.1001 48.5 67.4001 49.1 60.2001L49.3 58.0001H41.7C41.7 57.9001 41.7 57.8001 41.6 57.7001L29.6 21.9001L55.3 18.7001V78.4001H41.9C37.9 78.4001 34.6 81.7001 34.6 85.7001C34.6 89.7001 37.9 93.0001 41.9 93.0001H83.4C87.4 93.0001 90.7 89.7001 90.7 85.7001C90.7 81.7001 87.4 78.4001 83.4 78.4001H70V16.9001L94.9 13.8001L83.5 47.6001C83.5 47.7001 83.4 47.8001 83.4 47.9001H75.3L75.5 50.1001C76 57.3001 82.2 63.0001 89.4 63.0001H110.5C117.7 63.0001 123.8 57.3001 124.4 50.1001L124.6 47.9001H117C117 47.8001 117 47.7001 116.9 47.6001L105.1 12.6001L107.8 12.3001C111.1 11.9001 113.5 8.80007 113.1 5.50007C112.7 2.20007 109.6 -0.19993 106.3 0.20007L68.7 4.70007C67.4 2.80007 65.1 1.50007 62.6 1.50007ZM44.6 62.1001C43.3 66.1001 39.5 69.0001 35.3 69.0001H14.1C9.9 69.0001 6 66.2001 4.8 62.1001H44.6ZM37.9 58.0001H11.9L23.8 22.7001L25.8 22.4001L37.9 58.0001ZM83.4 82.1001C85.4 82.1001 87.1 83.7001 87.1 85.8001C87.1 87.8001 85.5 89.5001 83.4 89.5001H41.9C39.9 89.5001 38.2 87.9001 38.2 85.8001C38.2 83.8001 39.8 82.1001 41.9 82.1001H55.6H57.5H59.5H65.8H67.8H69.7H83.4ZM119.9 52.0001C118.6 56.0001 114.8 58.9001 110.6 58.9001H89.4C85.2 58.9001 81.3 56.1001 80.1 52.0001H119.9ZM113.2 47.8001H87.2L98.9 13.3001L101.4 13.0001L113.2 47.8001ZM106.8 3.70007C106.9 3.70007 107 3.70007 107.1 3.70007C108.3 3.70007 109.4 4.60007 109.5 5.80007C109.6 6.40007 109.4 7.10007 109 7.60007C108.6 8.10007 108 8.40007 107.4 8.50007L70 13.2001L68.2 13.4001L66.4 13.6001V15.4001V17.2001V78.3001H59V18.3001V16.5001V14.7001L57.2 14.9001L55.3 15.0001L17.8 19.7001C17.2 19.8001 16.5 19.6001 16 19.2001C15.5 18.8001 15.2 18.2001 15.1 17.6001C15 17.0001 15.2 16.3001 15.6 15.8001C16 15.3001 16.6 14.9001 17.2 14.9001L55.3 10.2001L57.1 10.0001L59 9.60007V8.80007C59 8.40007 59.1 8.10007 59.2 7.70007C59.5 6.80007 60 6.10007 60.8 5.70007C61.4 5.40007 62 5.20007 62.7 5.20007C63.1 5.20007 63.4 5.30007 63.8 5.40007C64.7 5.70007 65.4 6.20007 65.9 7.00007C66.2 7.50007 66.4 8.10007 66.4 8.80007L68.2 8.60007L70 8.40007L106.8 3.70007Z" fill="#BFBFBF"/>
</g>
<defs>
<clipPath id="clip0_11_425">
<rect width="124.6" height="93.1" fill="white"/>
</clipPath>
</defs>
</svg>
