<svg width="98" height="103" viewBox="0 0 98 103" fill="none" xmlns="http://www.w3.org/2000/svg">
<g clip-path="url(#clip0_11_445)">
<path d="M46.4 45.5C47.1 45.2 47.5 44.6 47.5 43.9V1.7C47.5 0.7 46.6999 0 45.7999 0C34.2999 0 23.5 4.4 15.2 12.4C14.9 12.7 14.7 13.2 14.7 13.6C14.7 14.1 14.9 14.5 15.2 14.8L44.5999 45.1C44.8999 45.4 45.4 45.6 45.7999 45.6C46 45.7 46.2 45.6 46.4 45.5ZM44.0999 39.7L18.9 13.7C25.9 7.5 34.6999 3.9 44.0999 3.5V39.7Z" fill="#BFBFBF"/>
<path d="M45.6 52.9001C45.6 52.4001 45.5 51.9 45.1 51.5L15.8 21.3C15.5 21 15 20.8 14.6 20.8C14.1 20.8 13.7 21 13.4 21.3C4.7 29.6 0 40.8 0 52.8C0 62 2.8 70.7 8.1 78.2C8.4 78.7 9 78.9001 9.5 78.9001C9.8 78.9001 10.2 78.8 10.5 78.6L44.9 54.2001C45.3 53.9001 45.6 53.4001 45.6 52.9001ZM9.9 74.8001C5.6 68.2001 3.4 60.7001 3.4 52.8C3.4 42.3 7.3 32.5 14.5 25L41.2 52.6L9.9 74.8001Z" fill="#BFBFBF"/>
<path d="M97.6 51.4001C97.5 50.7001 97.4 50.0001 97.3 49.3001C97 47.8001 96.7 46.2001 96.2 44.8001C96 44.2001 95.8 43.5001 95.6 42.9001C95.1 41.6001 94.6 40.2001 94 38.9001C93.7 38.3001 93.5 37.8001 93.2 37.2001C92.6 36.0001 91.9 34.8001 91.2 33.6001C90.9 33.1001 90.6 32.6001 90.2 32.1001C89.4 30.9001 88.5 29.7001 87.5 28.6001C87.1 28.2001 86.7 27.7001 86.4 27.3001C85.5 26.3001 84.6 25.4001 83.6 24.5001C83.2 24.1001 82.7 23.7001 82.3 23.3001C81.3 22.4001 80.3 21.6001 79.2 20.9001C78.7 20.6001 78.2 20.2001 77.7 19.9001C76.5 19.1001 75.4 18.4001 74.2 17.8001C73.7 17.5001 73.1 17.2001 72.6 17.0001C71.2 16.3001 69.7 15.7001 68.3 15.2001C67.7 15.0001 67.1 14.8001 66.5 14.6001C65.1 14.2001 63.6 13.8001 62.1 13.5001C61.4 13.4001 60.7 13.2001 60 13.1001C58.4 12.8001 56.7 12.7001 54.9 12.6001C54.3 12.6001 53.7 12.6001 53.1 12.6001C51.7 12.6001 50.5 13.8001 50.5 15.2001V56.0001L17.4 79.6001C16.8 80.0001 16.5 80.6001 16.3 81.3001C16.2 82.0001 16.3 82.6001 16.7 83.2001L16.9 83.4001C17.6 84.4001 18.4 85.4001 19.4 86.5001C19.8 86.9001 20.2 87.4001 20.6 87.8001C21.5 88.7001 22.4 89.7001 23.4 90.5001C23.8 90.9001 24.3 91.3001 24.7 91.6001C25.9 92.6001 27.1 93.5001 28.2 94.3001C28.6 94.6001 29 94.8001 29.5 95.1001L29.7 95.3001C30.9 96.0001 32.1 96.7001 33.3 97.3001C33.9 97.6001 34.4 97.8001 35 98.1001C36.2 98.7001 37.5 99.2001 39 99.7001C39.6 99.9001 40.2 100.1 40.9 100.3C42.5 100.8 43.9 101.1 45.4 101.4C46.1 101.5 46.8 101.6 47.5 101.7C49.4 102 51.4 102.1 53.2 102.1C53.2 102.1 53.3 102.1 53.4 102.1C54.2 102.1 55 102.1 55.8 102C57.9 101.9 60.1 101.6 62.1 101.2C63.2 101 64.2 100.7 65.3 100.4C68.6 99.5001 71.7 98.2001 74.6 96.6001C77.5 95.0001 80.3 93.1001 82.8 90.8001C84.2 89.5001 85.6 88.2001 86.8 86.8001C89.1 84.3001 91 81.5001 92.6 78.5001C94.2 75.6001 95.5 72.5001 96.4 69.2001C96.7 68.1001 97 67.0001 97.2 66.0001C97.6 63.9001 97.9 61.8001 98 59.6001C98 58.8001 98.1 58.0001 98.1 57.2001V57.1001C98 55.3001 97.9 53.4001 97.6 51.4001ZM94.5 59.5001C94.4 61.5001 94.1 63.4001 93.8 65.4001C93.6 66.4001 93.4 67.3001 93.1 68.4001C92.3 71.4001 91.1 74.3001 89.6 77.0001C88.1 79.7001 86.3 82.3001 84.3 84.6001C83.2 85.9001 81.9 87.1001 80.6 88.3001C78.3 90.4001 75.7 92.2001 73 93.6001C70.3 95.1001 67.4 96.2001 64.4 97.1001C63.4 97.4001 62.4 97.6001 61.4 97.8001C59.5 98.2001 57.5 98.4001 55.5 98.5001C54.8 98.5001 54 98.6001 53.3 98.6001H53.2C51.5 98.6001 49.7 98.5001 47.9 98.2001C47.2 98.1001 46.6 98.0001 45.9 97.9001C44.6 97.7001 43.2 97.3001 41.8 96.9001C41.2 96.7001 40.6 96.5001 40.1 96.4001C38.7 95.9001 37.5 95.5001 36.4 95.0001C35.9 94.8001 35.4 94.5001 34.9 94.3001C33.8 93.7001 32.7 93.1001 31.6 92.5001L31.3 92.3001C30.9 92.1001 30.5 91.8001 30.2 91.6001C29.2 90.9001 28.1 90.1001 27 89.1001C26.6 88.8001 26.2 88.4001 25.8 88.0001C24.9 87.2001 24 86.3001 23.2 85.5001C22.8 85.1001 22.5 84.7001 22.1 84.3001C21.4 83.5001 20.8 82.7001 20.2 82.0001L53.5 58.4001C54 58.1001 54.2 57.6001 54.2 57.0001V16.0001C54.5 16.0001 54.7 16.0001 55 16.0001C56.6 16.1001 58.2 16.2001 59.7 16.4001C60.3 16.5001 61 16.6001 61.6 16.7001C63 17.0001 64.3 17.3001 65.7 17.8001C66.3 18.0001 66.8 18.2001 67.4 18.4001C68.8 18.9001 70.1 19.5001 71.4 20.1001C71.9 20.3001 72.4 20.6001 72.9 20.9001C74 21.5001 75 22.1001 76.1 22.8001C76.6 23.1001 77 23.4001 77.4 23.7001C78.4 24.4001 79.3 25.2001 80.3 26.0001C80.7 26.4001 81.1 26.7001 81.5 27.1001C82.4 27.9001 83.3 28.8001 84 29.7001C84.4 30.1001 84.7 30.5001 85.1 30.9001C86 31.9001 86.8 33.0001 87.5 34.1001C87.8 34.6001 88.1 35.0001 88.4 35.5001C89.1 36.6001 89.7 37.7001 90.2 38.8001C90.5 39.3001 90.7 39.8001 90.9 40.3001C91.4 41.5001 91.9 42.7001 92.3 44.0001C92.5 44.6001 92.7 45.1001 92.8 45.7001C93.2 47.0001 93.5 48.4001 93.8 49.8001C93.9 50.5001 94 51.1001 94.1 51.8001C94.3 53.6001 94.5 55.4001 94.5 57.1001V57.2001C94.6 58.1001 94.5 58.8001 94.5 59.5001Z" fill="#BFBFBF"/>
</g>
<defs>
<clipPath id="clip0_11_445">
<rect width="98" height="102.1" fill="white"/>
</clipPath>
</defs>
</svg>
