<svg width="84" height="82" viewBox="0 0 84 82" fill="none" xmlns="http://www.w3.org/2000/svg">
<g clip-path="url(#clip0_11_456)">
<path d="M22.4 0H15.5C14.1 0 13 1.2 13 2.6V13H2.6C1.2 13 0 14.2 0 15.6V22.5C0 23.8 1.2 25 2.6 25H13V35.4C13 36.8 14.2 38 15.6 38H22.5C23.9 38 25.1 36.8 25.1 35.4V25H35.4C36.8 25 38 23.8 38 22.4V15.5C38 14.1 36.8 12.9 35.4 12.9H25V2.6C25 1.2 23.9 0 22.4 0ZM34.5 16.4V21.6H23.3C22.3 21.6 21.6 22.4 21.6 23.3V34.5H16.4V23.3C16.4 22.3 15.6 21.6 14.7 21.6H3.5V16.4H14.7C15.7 16.4 16.4 15.6 16.4 14.7V3.5H21.6V14.7C21.6 15.7 22.4 16.4 23.3 16.4H34.5Z" fill="#BFBFBF"/>
<path d="M45.2 57.7999V64.6999C45.2 66.0999 46.4 67.3 47.8 67.3H80.6C82 67.3 83.2 66.0999 83.2 64.6999V57.7999C83.2 56.3999 82 55.2 80.6 55.2H47.8C46.3 55.2 45.2 56.3999 45.2 57.7999ZM48.6 58.7H79.7V63.9H48.6V58.7Z" fill="#BFBFBF"/>
<path d="M83.9 22.3999V15.4999C83.9 14.0999 82.7 12.8999 81.3 12.8999H48.6C47.2 12.8999 46 14.0999 46 15.4999V22.3999C46 23.7999 47.2 24.9999 48.6 24.9999H81.4C82.8 24.9999 83.9 23.7999 83.9 22.3999ZM80.5 21.5999H49.4V16.3999H80.5V21.5999Z" fill="#BFBFBF"/>
<path d="M64.1 40.8999C60.8 40.8999 58.1 43.5999 58.1 46.8999V46.9999C58.1 50.2999 60.8 52.9999 64.2 52.9999C67.5 52.9999 70.2 50.2999 70.2 46.9999V46.8999C70.2 43.5999 67.5 40.8999 64.1 40.8999ZM66.7 46.8999V46.9999C66.7 48.3999 65.6 49.4999 64.1 49.4999C62.7 49.4999 61.6 48.3999 61.6 46.9999V46.8999C61.6 45.4999 62.7 44.3999 64.1 44.3999H64.2C65.6 44.3999 66.7 45.4999 66.7 46.8999Z" fill="#BFBFBF"/>
<path d="M64.1 69.5C60.8 69.5 58.1 72.2 58.1 75.5V75.6C58.1 78.9 60.8 81.6 64.2 81.6C67.5 81.6 70.2 78.9 70.2 75.6V75.5C70.2 72.2 67.5 69.5 64.1 69.5ZM66.7 75.5V75.6C66.7 77 65.6 78.1 64.1 78.1C62.7 78.1 61.6 77 61.6 75.6V75.5C61.6 74.1 62.7 73 64.1 73H64.2C65.6 72.9 66.7 74.1 66.7 75.5Z" fill="#BFBFBF"/>
<path d="M7.60001 76.6001C8.30001 77.0001 9.10001 77.2001 9.80001 77.2001C10.9 77.2001 12 76.8001 12.9 75.9001L19 69.8001L25.1 75.9001C26.8 77.6001 29.6 77.6001 31.3 75.9001L34.9 72.3001C35.4 71.8001 35.7 71.2001 35.7 70.5001C35.7 69.8001 35.4 69.2001 34.9 68.7001L27.6 61.4001L34.9 54.1001C35.4 53.6001 35.7 53.0001 35.7 52.3001C35.7 51.6001 35.4 51.0001 34.9 50.5001L30 45.4001C29.5 44.9001 28.9 44.6001 28.2 44.6001C27.5 44.6001 26.9 44.9001 26.4 45.4001L19 52.7001L11.7 45.4001C11.2 44.9001 10.6 44.6001 9.90001 44.6001C9.20001 44.6001 8.60001 44.9001 8.10001 45.4001L3.20001 50.3001C2.20001 51.3001 2.20001 53.0001 3.20001 54.0001L10.5 61.3001L4.20001 67.6001C4.00001 67.7001 3.80001 68.0001 3.60001 68.2001C2.70001 70.0001 3.00001 72.1001 4.40001 73.5001L6.90001 76.0001C7.20001 76.3001 7.40001 76.4001 7.60001 76.6001ZM6.70001 69.9001L14.1 62.5001C14.4 62.2001 14.6 61.7001 14.6 61.3001C14.6 60.8001 14.4 60.4001 14.1 60.1001L6.20001 52.2001L9.80001 48.6001L17.7 56.5001C18.4 57.2001 19.5 57.2001 20.1 56.5001L28 48.6001L31.6 52.2001L23.8 60.0001C23.1 60.7001 23.1 61.8001 23.8 62.4001L31.7 70.3001L28.7 73.3001C28.4 73.6001 27.7 73.6001 27.4 73.3001L20.1 66.0001C19.5 65.4001 18.3 65.4001 17.7 66.0001L10.4 73.3001C10.1 73.6001 9.70001 73.6001 9.30001 73.5001L6.80001 71.0001C6.50001 70.8001 6.50001 70.3001 6.70001 69.9001Z" fill="#BFBFBF"/>
</g>
<defs>
<clipPath id="clip0_11_456">
<rect width="83.9" height="81.6" fill="white"/>
</clipPath>
</defs>
</svg>
