<svg width="90" height="99" viewBox="0 0 90 99" fill="none" xmlns="http://www.w3.org/2000/svg">
<g clip-path="url(#clip0_11_440)">
<path d="M0 78.1C0 85.2 1.7 90.3001 5.1 93.6001C9.6 97.9001 16.5 98.8 24.7 98.8C27.6 98.8 30.6 98.7001 33.7 98.6001C37.2 98.5001 40.8 98.3 44.5 98.3C47.4 98.3 50.2 98.4001 53 98.4001C66.1 98.7001 77.4 98.9 83.8 92.6C87.4 89.1 89.1 83.8 89.1 76.6C89.1 59.3 78.3 36.3 61 29.4C60.8 29.3 60.6 29.3 60.4 29.3H28.8C28.6 29.3 28.4 29.3 28.2 29.4C11.3 36.1 0 60 0 78.1ZM29.1 32.7001H60C74.2 38.5001 85.7 58.1 85.7 76.6C85.7 82.9 84.3 87.3 81.4 90.1C76 95.4 65.4 95.2001 53.1 94.9001C50.3 94.8001 47.5 94.8 44.5 94.8C40.7 94.8 37.1 94.9001 33.5 95.1001C22.1 95.5001 12.3 95.9 7.4 91.1C4.7 88.5 3.3 84.2 3.3 78.1C3.5 57.2 16.7 37.9001 29.1 32.7001Z" fill="#BFBFBF"/>
<path d="M30.9 26.1H58C58.5 26.1 58.9 25.9 59.3 25.6C64.3 20.2 67.3 9.2 67.3 1.7C67.3 0.7 66.5 0 65.6 0H23.3C22.3 0 21.6 0.8 21.6 1.7C21.6 9.2 24.6 20.2 29.6 25.6C29.9 26 30.4 26.1 30.9 26.1ZM63.8 3.5C63.4 9.8 61 18.3 57.2 22.7H31.7C27.9 18.2 25.5 9.8 25.1 3.5H63.8Z" fill="#BFBFBF"/>
<path d="M31.9 77.9999C34.5 79.5999 38.4 80.2999 40.5 80.4999V83.9999C40.5 84.9999 41.3 85.6999 42.2 85.6999H47.5C48 85.6999 48.4 85.4999 48.7 85.1999C49 84.8999 49.2 84.3999 49.2 83.9999V79.9999C53.3 78.9999 57.5 75.4999 58 69.9999C58.6 63.1999 54.1 60.3999 53.2 59.8999C52.7 59.5999 51.8 59.2999 50.8 58.8999C49 58.1999 46.5 57.1999 44.7 55.9999C44 55.5999 43.8 54.8999 43.9 54.4999C44 53.9999 44.8 53.7999 45.2 53.7999C48.3 53.5999 53.1 55.1999 53.2 55.1999C53.7 55.3999 54.2 55.2999 54.6 55.0999C55 54.8999 55.3 54.4999 55.4 53.9999L56.7 48.2999C56.9 47.5999 56.6 46.8999 55.9 46.4999C54.2 45.3999 51.2 44.8999 49.2 44.6999V41.5999C49.2 40.5999 48.4 39.8999 47.5 39.8999H42.2C41.2 39.8999 40.5 40.6999 40.5 41.5999V45.4999C34.3 47.2999 31.3 51.3999 32 57.3999C32.8 63.9999 41.4 66.7999 43.2 67.1999C46.8 68.1999 46.7 68.7999 46.5 69.6999C46.3 70.5999 43.3 71.1999 40.4 70.5999C37.9 70.0999 35.7 68.8999 35.7 68.8999C35.2 68.6999 34.7 68.5999 34.2 68.7999C33.7 68.9999 33.4 69.3999 33.2 69.8999L31.2 76.0999C30.9 76.7999 31.2 77.5999 31.9 77.9999ZM35.9 72.7999C36.9 73.1999 38.2 73.6999 39.7 73.9999C43.3 74.6999 49 74.3999 49.9 70.4999C50.9 65.8999 46.6 64.5999 44.2 63.9999C41.4 63.1999 35.9 60.6999 35.5 57.0999C35 52.4999 37.2 49.7999 42.6 48.6999C43.4 48.4999 44 47.7999 44 46.9999V43.3999H45.8V46.2999C45.8 47.1999 46.5 47.9999 47.4 47.9999C49 48.0999 51.5 48.4999 53 48.9999L52.4 51.4999C50.5 50.9999 47.4 50.2999 44.9 50.4999C42.7 50.6999 41 51.8999 40.5 53.7999C40 55.7999 40.9 57.8999 42.8 59.0999C44.9 60.3999 47.6 61.4999 49.5 62.2999C50.4 62.5999 51.2 62.9999 51.6 63.1999C52.2 63.4999 55 65.2999 54.6 69.8999C54.2 74.1999 50.6 76.7999 47.4 76.9999C46.5 77.0999 45.8 77.7999 45.8 78.6999V82.3999H44V78.9999C44 78.0999 43.3 77.2999 42.4 77.2999C41.1 77.1999 37.5 76.7999 35 75.6999L35.9 72.7999Z" fill="#BFBFBF"/>
</g>
<defs>
<clipPath id="clip0_11_440">
<rect width="89.2" height="98.8" fill="white"/>
</clipPath>
</defs>
</svg>
